# xmcd
#
# Track frame offsets:
#	180
#	12689
#	33497
#	49267
#	61674
#	73027
#	93840
#	107480
#	119420
#	132182
#	145216
#	160444
#
# Disc length: 2301 seconds
#
# Revision: 1
# Processed by: cddbd v1.5.2PL0 Copyright (c) Steve Scherf et al.
# Submitted via: audiograbber 1.83.01
#
DISCID=a708fb0c
DTITLE=Jungle Orchestra - Hot Dance Musik of the Twenties and Thirties
DYEAR=1900
DGENRE=Jazz
TTITLE0=Forty Second Street
TTITLE1=East St. Louis Toodle-O
TTITLE2=The Mooch
TTITLE3=That Lindy Hop
TTITLE4=Yes Sir, That's My Baby
TTITLE5=Dead Man Blues
TTITLE6=You're Driving Me Crazy
TTITLE7=Abends, wenn die Lichter glüh'n
TTITLE8=New Moten Stomp
TTITLE9=Creole Love Call
TTITLE10=Black and Tan Fantasy
TTITLE11=Ain't She Sweet
EXTD=
EXTT0=
EXTT1=
EXTT2=
EXTT3=
EXTT4=
EXTT5=
EXTT6=
EXTT7=
EXTT8=
EXTT9=
EXTT10=
EXTT11=
PLAYORDER=
